<svg xmlns="http://www.w3.org/2000/svg" width="1200" height="750" viewBox="0 0 1200 750">
  <defs>
    <linearGradient id="g" x1="0" y1="0" x2="1" y2="1">
      <stop offset="0" stop-color="#0d0c12"/>
      <stop offset="1" stop-color="#1e1b2a"/>
    </linearGradient>
    <radialGradient id="glow" cx="50%" cy="30%" r="70%">
      <stop offset="0" stop-color="#f3e7c4" stop-opacity="0.28"/>
      <stop offset="0.6" stop-color="#f3e7c4" stop-opacity="0"/>
    </radialGradient>
  </defs>
  <rect width="1200" height="750" fill="url(#g)"/>
  <rect width="1200" height="750" fill="url(#glow)"/>
  <circle cx="0.0" cy="0.0" r="0.6" fill="#f3e7c4" opacity="0.15"/><circle cx="97.1" cy="57.3" r="1.2" fill="#f3e7c4" opacity="0.25"/><circle cx="194.3" cy="114.6" r="1.8" fill="#f3e7c4" opacity="0.35"/><circle cx="291.4" cy="171.9" r="0.6" fill="#f3e7c4" opacity="0.45"/><circle cx="388.5" cy="229.2" r="1.2" fill="#f3e7c4" opacity="0.55"/><circle cx="485.6" cy="286.6" r="1.8" fill="#f3e7c4" opacity="0.15"/><circle cx="582.8" cy="343.9" r="0.6" fill="#f3e7c4" opacity="0.25"/><circle cx="679.9" cy="401.2" r="1.2" fill="#f3e7c4" opacity="0.35"/><circle cx="777.0" cy="458.5" r="1.8" fill="#f3e7c4" opacity="0.45"/><circle cx="874.2" cy="515.8" r="0.6" fill="#f3e7c4" opacity="0.55"/><circle cx="971.3" cy="573.1" r="1.2" fill="#f3e7c4" opacity="0.15"/><circle cx="1068.4" cy="630.4" r="1.8" fill="#f3e7c4" opacity="0.25"/><circle cx="1165.6" cy="687.7" r="0.6" fill="#f3e7c4" opacity="0.35"/><circle cx="62.7" cy="745.0" r="1.2" fill="#f3e7c4" opacity="0.45"/><circle cx="159.8" cy="52.3" r="1.8" fill="#f3e7c4" opacity="0.55"/><circle cx="256.9" cy="109.7" r="0.6" fill="#f3e7c4" opacity="0.15"/><circle cx="354.1" cy="167.0" r="1.2" fill="#f3e7c4" opacity="0.25"/><circle cx="451.2" cy="224.3" r="1.8" fill="#f3e7c4" opacity="0.35"/><circle cx="548.3" cy="281.6" r="0.6" fill="#f3e7c4" opacity="0.45"/><circle cx="645.5" cy="338.9" r="1.2" fill="#f3e7c4" opacity="0.55"/><circle cx="742.6" cy="396.2" r="1.8" fill="#f3e7c4" opacity="0.15"/><circle cx="839.7" cy="453.5" r="0.6" fill="#f3e7c4" opacity="0.25"/><circle cx="936.9" cy="510.8" r="1.2" fill="#f3e7c4" opacity="0.35"/><circle cx="1034.0" cy="568.1" r="1.8" fill="#f3e7c4" opacity="0.45"/><circle cx="1131.1" cy="625.4" r="0.6" fill="#f3e7c4" opacity="0.55"/><circle cx="28.3" cy="682.8" r="1.2" fill="#f3e7c4" opacity="0.15"/><circle cx="125.4" cy="740.1" r="1.8" fill="#f3e7c4" opacity="0.25"/><circle cx="222.5" cy="47.4" r="0.6" fill="#f3e7c4" opacity="0.35"/><circle cx="319.6" cy="104.7" r="1.2" fill="#f3e7c4" opacity="0.45"/><circle cx="416.8" cy="162.0" r="1.8" fill="#f3e7c4" opacity="0.55"/><circle cx="513.9" cy="219.3" r="0.6" fill="#f3e7c4" opacity="0.15"/><circle cx="611.0" cy="276.6" r="1.2" fill="#f3e7c4" opacity="0.25"/><circle cx="708.2" cy="333.9" r="1.8" fill="#f3e7c4" opacity="0.35"/><circle cx="805.3" cy="391.2" r="0.6" fill="#f3e7c4" opacity="0.45"/><circle cx="902.4" cy="448.5" r="1.2" fill="#f3e7c4" opacity="0.55"/><circle cx="999.5" cy="505.9" r="1.8" fill="#f3e7c4" opacity="0.15"/><circle cx="1096.7" cy="563.2" r="0.6" fill="#f3e7c4" opacity="0.25"/><circle cx="1193.8" cy="620.5" r="1.2" fill="#f3e7c4" opacity="0.35"/><circle cx="90.9" cy="677.8" r="1.8" fill="#f3e7c4" opacity="0.45"/><circle cx="188.1" cy="735.1" r="0.6" fill="#f3e7c4" opacity="0.55"/><circle cx="285.2" cy="42.4" r="1.2" fill="#f3e7c4" opacity="0.15"/><circle cx="382.3" cy="99.7" r="1.8" fill="#f3e7c4" opacity="0.25"/><circle cx="479.5" cy="157.0" r="0.6" fill="#f3e7c4" opacity="0.35"/><circle cx="576.6" cy="214.3" r="1.2" fill="#f3e7c4" opacity="0.45"/><circle cx="673.7" cy="271.6" r="1.8" fill="#f3e7c4" opacity="0.55"/><circle cx="770.8" cy="329.0" r="0.6" fill="#f3e7c4" opacity="0.15"/><circle cx="868.0" cy="386.3" r="1.2" fill="#f3e7c4" opacity="0.25"/><circle cx="965.1" cy="443.6" r="1.8" fill="#f3e7c4" opacity="0.35"/><circle cx="1062.2" cy="500.9" r="0.6" fill="#f3e7c4" opacity="0.45"/><circle cx="1159.4" cy="558.2" r="1.2" fill="#f3e7c4" opacity="0.55"/><circle cx="56.5" cy="615.5" r="1.8" fill="#f3e7c4" opacity="0.15"/><circle cx="153.6" cy="672.8" r="0.6" fill="#f3e7c4" opacity="0.25"/><circle cx="250.8" cy="730.1" r="1.2" fill="#f3e7c4" opacity="0.35"/><circle cx="347.9" cy="37.4" r="1.8" fill="#f3e7c4" opacity="0.45"/><circle cx="445.0" cy="94.7" r="0.6" fill="#f3e7c4" opacity="0.55"/><circle cx="542.1" cy="152.1" r="1.2" fill="#f3e7c4" opacity="0.15"/><circle cx="639.3" cy="209.4" r="1.8" fill="#f3e7c4" opacity="0.25"/><circle cx="736.4" cy="266.7" r="0.6" fill="#f3e7c4" opacity="0.35"/><circle cx="833.5" cy="324.0" r="1.2" fill="#f3e7c4" opacity="0.45"/><circle cx="930.7" cy="381.3" r="1.8" fill="#f3e7c4" opacity="0.55"/>
  <g fill="none" stroke="#f3e7c4" stroke-opacity="0.35" stroke-width="1">
    <circle cx="600" cy="375" r="120"/>
  </g>
  <text x="50%" y="50%" dy="0.35em" text-anchor="middle"
    font-family="'Space Grotesk', system-ui, sans-serif" font-size="67.5"
    letter-spacing="4" fill="#f3e7c4" fill-opacity="0.8">A &amp; K</text>
  <text x="50%" y="732" text-anchor="middle"
    font-family="system-ui, sans-serif" font-size="12" letter-spacing="3"
    fill="#f3e7c4" fill-opacity="0.45">PLACEHOLDER</text>
</svg>