<svg xmlns="http://www.w3.org/2000/svg" width="800" height="800" viewBox="0 0 800 800">
  <defs>
    <linearGradient id="g" x1="0" y1="0" x2="1" y2="1">
      <stop offset="0" stop-color="#100b14"/>
      <stop offset="1" stop-color="#241a2b"/>
    </linearGradient>
    <radialGradient id="glow" cx="50%" cy="30%" r="70%">
      <stop offset="0" stop-color="#e6d2a8" stop-opacity="0.28"/>
      <stop offset="0.6" stop-color="#e6d2a8" stop-opacity="0"/>
    </radialGradient>
  </defs>
  <rect width="800" height="800" fill="url(#g)"/>
  <rect width="800" height="800" fill="url(#glow)"/>
  <circle cx="0.0" cy="0.0" r="0.6" fill="#e6d2a8" opacity="0.15"/><circle cx="97.1" cy="57.3" r="1.2" fill="#e6d2a8" opacity="0.25"/><circle cx="194.3" cy="114.6" r="1.8" fill="#e6d2a8" opacity="0.35"/><circle cx="291.4" cy="171.9" r="0.6" fill="#e6d2a8" opacity="0.45"/><circle cx="388.5" cy="229.2" r="1.2" fill="#e6d2a8" opacity="0.55"/><circle cx="485.6" cy="286.6" r="1.8" fill="#e6d2a8" opacity="0.15"/><circle cx="582.8" cy="343.9" r="0.6" fill="#e6d2a8" opacity="0.25"/><circle cx="679.9" cy="401.2" r="1.2" fill="#e6d2a8" opacity="0.35"/><circle cx="777.0" cy="458.5" r="1.8" fill="#e6d2a8" opacity="0.45"/><circle cx="74.2" cy="515.8" r="0.6" fill="#e6d2a8" opacity="0.55"/><circle cx="171.3" cy="573.1" r="1.2" fill="#e6d2a8" opacity="0.15"/><circle cx="268.4" cy="630.4" r="1.8" fill="#e6d2a8" opacity="0.25"/><circle cx="365.6" cy="687.7" r="0.6" fill="#e6d2a8" opacity="0.35"/><circle cx="462.7" cy="745.0" r="1.2" fill="#e6d2a8" opacity="0.45"/><circle cx="559.8" cy="2.3" r="1.8" fill="#e6d2a8" opacity="0.55"/><circle cx="656.9" cy="59.7" r="0.6" fill="#e6d2a8" opacity="0.15"/><circle cx="754.1" cy="117.0" r="1.2" fill="#e6d2a8" opacity="0.25"/><circle cx="51.2" cy="174.3" r="1.8" fill="#e6d2a8" opacity="0.35"/><circle cx="148.3" cy="231.6" r="0.6" fill="#e6d2a8" opacity="0.45"/><circle cx="245.5" cy="288.9" r="1.2" fill="#e6d2a8" opacity="0.55"/><circle cx="342.6" cy="346.2" r="1.8" fill="#e6d2a8" opacity="0.15"/><circle cx="439.7" cy="403.5" r="0.6" fill="#e6d2a8" opacity="0.25"/><circle cx="536.9" cy="460.8" r="1.2" fill="#e6d2a8" opacity="0.35"/><circle cx="634.0" cy="518.1" r="1.8" fill="#e6d2a8" opacity="0.45"/><circle cx="731.1" cy="575.4" r="0.6" fill="#e6d2a8" opacity="0.55"/><circle cx="28.3" cy="632.8" r="1.2" fill="#e6d2a8" opacity="0.15"/><circle cx="125.4" cy="690.1" r="1.8" fill="#e6d2a8" opacity="0.25"/><circle cx="222.5" cy="747.4" r="0.6" fill="#e6d2a8" opacity="0.35"/><circle cx="319.6" cy="4.7" r="1.2" fill="#e6d2a8" opacity="0.45"/><circle cx="416.8" cy="62.0" r="1.8" fill="#e6d2a8" opacity="0.55"/><circle cx="513.9" cy="119.3" r="0.6" fill="#e6d2a8" opacity="0.15"/><circle cx="611.0" cy="176.6" r="1.2" fill="#e6d2a8" opacity="0.25"/><circle cx="708.2" cy="233.9" r="1.8" fill="#e6d2a8" opacity="0.35"/><circle cx="5.3" cy="291.2" r="0.6" fill="#e6d2a8" opacity="0.45"/><circle cx="102.4" cy="348.5" r="1.2" fill="#e6d2a8" opacity="0.55"/><circle cx="199.5" cy="405.9" r="1.8" fill="#e6d2a8" opacity="0.15"/><circle cx="296.7" cy="463.2" r="0.6" fill="#e6d2a8" opacity="0.25"/><circle cx="393.8" cy="520.5" r="1.2" fill="#e6d2a8" opacity="0.35"/><circle cx="490.9" cy="577.8" r="1.8" fill="#e6d2a8" opacity="0.45"/><circle cx="588.1" cy="635.1" r="0.6" fill="#e6d2a8" opacity="0.55"/><circle cx="685.2" cy="692.4" r="1.2" fill="#e6d2a8" opacity="0.15"/><circle cx="782.3" cy="749.7" r="1.8" fill="#e6d2a8" opacity="0.25"/><circle cx="79.5" cy="7.0" r="0.6" fill="#e6d2a8" opacity="0.35"/><circle cx="176.6" cy="64.3" r="1.2" fill="#e6d2a8" opacity="0.45"/><circle cx="273.7" cy="121.6" r="1.8" fill="#e6d2a8" opacity="0.55"/><circle cx="370.8" cy="179.0" r="0.6" fill="#e6d2a8" opacity="0.15"/><circle cx="468.0" cy="236.3" r="1.2" fill="#e6d2a8" opacity="0.25"/><circle cx="565.1" cy="293.6" r="1.8" fill="#e6d2a8" opacity="0.35"/><circle cx="662.2" cy="350.9" r="0.6" fill="#e6d2a8" opacity="0.45"/><circle cx="759.4" cy="408.2" r="1.2" fill="#e6d2a8" opacity="0.55"/><circle cx="56.5" cy="465.5" r="1.8" fill="#e6d2a8" opacity="0.15"/><circle cx="153.6" cy="522.8" r="0.6" fill="#e6d2a8" opacity="0.25"/><circle cx="250.8" cy="580.1" r="1.2" fill="#e6d2a8" opacity="0.35"/><circle cx="347.9" cy="637.4" r="1.8" fill="#e6d2a8" opacity="0.45"/><circle cx="445.0" cy="694.7" r="0.6" fill="#e6d2a8" opacity="0.55"/><circle cx="542.1" cy="752.1" r="1.2" fill="#e6d2a8" opacity="0.15"/><circle cx="639.3" cy="9.4" r="1.8" fill="#e6d2a8" opacity="0.25"/><circle cx="736.4" cy="66.7" r="0.6" fill="#e6d2a8" opacity="0.35"/><circle cx="33.5" cy="124.0" r="1.2" fill="#e6d2a8" opacity="0.45"/><circle cx="130.7" cy="181.3" r="1.8" fill="#e6d2a8" opacity="0.55"/>
  <g fill="none" stroke="#e6d2a8" stroke-opacity="0.35" stroke-width="1">
    <circle cx="400" cy="400" r="128"/>
  </g>
  <text x="50%" y="50%" dy="0.35em" text-anchor="middle"
    font-family="'Space Grotesk', system-ui, sans-serif" font-size="72"
    letter-spacing="4" fill="#e6d2a8" fill-opacity="0.8">A &amp; K</text>
  <text x="50%" y="782" text-anchor="middle"
    font-family="system-ui, sans-serif" font-size="12" letter-spacing="3"
    fill="#e6d2a8" fill-opacity="0.45">PLACEHOLDER</text>
</svg>