<svg xmlns="http://www.w3.org/2000/svg" width="800" height="1000" viewBox="0 0 800 1000">
  <defs>
    <linearGradient id="g" x1="0" y1="0" x2="1" y2="1">
      <stop offset="0" stop-color="#0c1016"/>
      <stop offset="1" stop-color="#14202a"/>
    </linearGradient>
    <radialGradient id="glow" cx="50%" cy="30%" r="70%">
      <stop offset="0" stop-color="#afb8c9" stop-opacity="0.28"/>
      <stop offset="0.6" stop-color="#afb8c9" stop-opacity="0"/>
    </radialGradient>
  </defs>
  <rect width="800" height="1000" fill="url(#g)"/>
  <rect width="800" height="1000" fill="url(#glow)"/>
  <circle cx="0.0" cy="0.0" r="0.6" fill="#afb8c9" opacity="0.15"/><circle cx="97.1" cy="57.3" r="1.2" fill="#afb8c9" opacity="0.25"/><circle cx="194.3" cy="114.6" r="1.8" fill="#afb8c9" opacity="0.35"/><circle cx="291.4" cy="171.9" r="0.6" fill="#afb8c9" opacity="0.45"/><circle cx="388.5" cy="229.2" r="1.2" fill="#afb8c9" opacity="0.55"/><circle cx="485.6" cy="286.6" r="1.8" fill="#afb8c9" opacity="0.15"/><circle cx="582.8" cy="343.9" r="0.6" fill="#afb8c9" opacity="0.25"/><circle cx="679.9" cy="401.2" r="1.2" fill="#afb8c9" opacity="0.35"/><circle cx="777.0" cy="458.5" r="1.8" fill="#afb8c9" opacity="0.45"/><circle cx="74.2" cy="515.8" r="0.6" fill="#afb8c9" opacity="0.55"/><circle cx="171.3" cy="573.1" r="1.2" fill="#afb8c9" opacity="0.15"/><circle cx="268.4" cy="630.4" r="1.8" fill="#afb8c9" opacity="0.25"/><circle cx="365.6" cy="687.7" r="0.6" fill="#afb8c9" opacity="0.35"/><circle cx="462.7" cy="745.0" r="1.2" fill="#afb8c9" opacity="0.45"/><circle cx="559.8" cy="802.3" r="1.8" fill="#afb8c9" opacity="0.55"/><circle cx="656.9" cy="859.7" r="0.6" fill="#afb8c9" opacity="0.15"/><circle cx="754.1" cy="917.0" r="1.2" fill="#afb8c9" opacity="0.25"/><circle cx="51.2" cy="974.3" r="1.8" fill="#afb8c9" opacity="0.35"/><circle cx="148.3" cy="31.6" r="0.6" fill="#afb8c9" opacity="0.45"/><circle cx="245.5" cy="88.9" r="1.2" fill="#afb8c9" opacity="0.55"/><circle cx="342.6" cy="146.2" r="1.8" fill="#afb8c9" opacity="0.15"/><circle cx="439.7" cy="203.5" r="0.6" fill="#afb8c9" opacity="0.25"/><circle cx="536.9" cy="260.8" r="1.2" fill="#afb8c9" opacity="0.35"/><circle cx="634.0" cy="318.1" r="1.8" fill="#afb8c9" opacity="0.45"/><circle cx="731.1" cy="375.4" r="0.6" fill="#afb8c9" opacity="0.55"/><circle cx="28.3" cy="432.8" r="1.2" fill="#afb8c9" opacity="0.15"/><circle cx="125.4" cy="490.1" r="1.8" fill="#afb8c9" opacity="0.25"/><circle cx="222.5" cy="547.4" r="0.6" fill="#afb8c9" opacity="0.35"/><circle cx="319.6" cy="604.7" r="1.2" fill="#afb8c9" opacity="0.45"/><circle cx="416.8" cy="662.0" r="1.8" fill="#afb8c9" opacity="0.55"/><circle cx="513.9" cy="719.3" r="0.6" fill="#afb8c9" opacity="0.15"/><circle cx="611.0" cy="776.6" r="1.2" fill="#afb8c9" opacity="0.25"/><circle cx="708.2" cy="833.9" r="1.8" fill="#afb8c9" opacity="0.35"/><circle cx="5.3" cy="891.2" r="0.6" fill="#afb8c9" opacity="0.45"/><circle cx="102.4" cy="948.5" r="1.2" fill="#afb8c9" opacity="0.55"/><circle cx="199.5" cy="5.9" r="1.8" fill="#afb8c9" opacity="0.15"/><circle cx="296.7" cy="63.2" r="0.6" fill="#afb8c9" opacity="0.25"/><circle cx="393.8" cy="120.5" r="1.2" fill="#afb8c9" opacity="0.35"/><circle cx="490.9" cy="177.8" r="1.8" fill="#afb8c9" opacity="0.45"/><circle cx="588.1" cy="235.1" r="0.6" fill="#afb8c9" opacity="0.55"/><circle cx="685.2" cy="292.4" r="1.2" fill="#afb8c9" opacity="0.15"/><circle cx="782.3" cy="349.7" r="1.8" fill="#afb8c9" opacity="0.25"/><circle cx="79.5" cy="407.0" r="0.6" fill="#afb8c9" opacity="0.35"/><circle cx="176.6" cy="464.3" r="1.2" fill="#afb8c9" opacity="0.45"/><circle cx="273.7" cy="521.6" r="1.8" fill="#afb8c9" opacity="0.55"/><circle cx="370.8" cy="579.0" r="0.6" fill="#afb8c9" opacity="0.15"/><circle cx="468.0" cy="636.3" r="1.2" fill="#afb8c9" opacity="0.25"/><circle cx="565.1" cy="693.6" r="1.8" fill="#afb8c9" opacity="0.35"/><circle cx="662.2" cy="750.9" r="0.6" fill="#afb8c9" opacity="0.45"/><circle cx="759.4" cy="808.2" r="1.2" fill="#afb8c9" opacity="0.55"/><circle cx="56.5" cy="865.5" r="1.8" fill="#afb8c9" opacity="0.15"/><circle cx="153.6" cy="922.8" r="0.6" fill="#afb8c9" opacity="0.25"/><circle cx="250.8" cy="980.1" r="1.2" fill="#afb8c9" opacity="0.35"/><circle cx="347.9" cy="37.4" r="1.8" fill="#afb8c9" opacity="0.45"/><circle cx="445.0" cy="94.7" r="0.6" fill="#afb8c9" opacity="0.55"/><circle cx="542.1" cy="152.1" r="1.2" fill="#afb8c9" opacity="0.15"/><circle cx="639.3" cy="209.4" r="1.8" fill="#afb8c9" opacity="0.25"/><circle cx="736.4" cy="266.7" r="0.6" fill="#afb8c9" opacity="0.35"/><circle cx="33.5" cy="324.0" r="1.2" fill="#afb8c9" opacity="0.45"/><circle cx="130.7" cy="381.3" r="1.8" fill="#afb8c9" opacity="0.55"/>
  <g fill="none" stroke="#afb8c9" stroke-opacity="0.35" stroke-width="1">
    <circle cx="400" cy="500" r="128"/>
  </g>
  <text x="50%" y="50%" dy="0.35em" text-anchor="middle"
    font-family="'Space Grotesk', system-ui, sans-serif" font-size="72"
    letter-spacing="4" fill="#afb8c9" fill-opacity="0.8">A &amp; K</text>
  <text x="50%" y="982" text-anchor="middle"
    font-family="system-ui, sans-serif" font-size="12" letter-spacing="3"
    fill="#afb8c9" fill-opacity="0.45">PLACEHOLDER</text>
</svg>