<svg xmlns="http://www.w3.org/2000/svg" width="1000" height="750" viewBox="0 0 1000 750">
  <defs>
    <linearGradient id="g" x1="0" y1="0" x2="1" y2="1">
      <stop offset="0" stop-color="#0b1220"/>
      <stop offset="1" stop-color="#1b2233"/>
    </linearGradient>
    <radialGradient id="glow" cx="50%" cy="30%" r="70%">
      <stop offset="0" stop-color="#e6d2a8" stop-opacity="0.28"/>
      <stop offset="0.6" stop-color="#e6d2a8" stop-opacity="0"/>
    </radialGradient>
  </defs>
  <rect width="1000" height="750" fill="url(#g)"/>
  <rect width="1000" height="750" fill="url(#glow)"/>
  <circle cx="0.0" cy="0.0" r="0.6" fill="#e6d2a8" opacity="0.15"/><circle cx="97.1" cy="57.3" r="1.2" fill="#e6d2a8" opacity="0.25"/><circle cx="194.3" cy="114.6" r="1.8" fill="#e6d2a8" opacity="0.35"/><circle cx="291.4" cy="171.9" r="0.6" fill="#e6d2a8" opacity="0.45"/><circle cx="388.5" cy="229.2" r="1.2" fill="#e6d2a8" opacity="0.55"/><circle cx="485.6" cy="286.6" r="1.8" fill="#e6d2a8" opacity="0.15"/><circle cx="582.8" cy="343.9" r="0.6" fill="#e6d2a8" opacity="0.25"/><circle cx="679.9" cy="401.2" r="1.2" fill="#e6d2a8" opacity="0.35"/><circle cx="777.0" cy="458.5" r="1.8" fill="#e6d2a8" opacity="0.45"/><circle cx="874.2" cy="515.8" r="0.6" fill="#e6d2a8" opacity="0.55"/><circle cx="971.3" cy="573.1" r="1.2" fill="#e6d2a8" opacity="0.15"/><circle cx="68.4" cy="630.4" r="1.8" fill="#e6d2a8" opacity="0.25"/><circle cx="165.6" cy="687.7" r="0.6" fill="#e6d2a8" opacity="0.35"/><circle cx="262.7" cy="745.0" r="1.2" fill="#e6d2a8" opacity="0.45"/><circle cx="359.8" cy="52.3" r="1.8" fill="#e6d2a8" opacity="0.55"/><circle cx="456.9" cy="109.7" r="0.6" fill="#e6d2a8" opacity="0.15"/><circle cx="554.1" cy="167.0" r="1.2" fill="#e6d2a8" opacity="0.25"/><circle cx="651.2" cy="224.3" r="1.8" fill="#e6d2a8" opacity="0.35"/><circle cx="748.3" cy="281.6" r="0.6" fill="#e6d2a8" opacity="0.45"/><circle cx="845.5" cy="338.9" r="1.2" fill="#e6d2a8" opacity="0.55"/><circle cx="942.6" cy="396.2" r="1.8" fill="#e6d2a8" opacity="0.15"/><circle cx="39.7" cy="453.5" r="0.6" fill="#e6d2a8" opacity="0.25"/><circle cx="136.9" cy="510.8" r="1.2" fill="#e6d2a8" opacity="0.35"/><circle cx="234.0" cy="568.1" r="1.8" fill="#e6d2a8" opacity="0.45"/><circle cx="331.1" cy="625.4" r="0.6" fill="#e6d2a8" opacity="0.55"/><circle cx="428.3" cy="682.8" r="1.2" fill="#e6d2a8" opacity="0.15"/><circle cx="525.4" cy="740.1" r="1.8" fill="#e6d2a8" opacity="0.25"/><circle cx="622.5" cy="47.4" r="0.6" fill="#e6d2a8" opacity="0.35"/><circle cx="719.6" cy="104.7" r="1.2" fill="#e6d2a8" opacity="0.45"/><circle cx="816.8" cy="162.0" r="1.8" fill="#e6d2a8" opacity="0.55"/><circle cx="913.9" cy="219.3" r="0.6" fill="#e6d2a8" opacity="0.15"/><circle cx="11.0" cy="276.6" r="1.2" fill="#e6d2a8" opacity="0.25"/><circle cx="108.2" cy="333.9" r="1.8" fill="#e6d2a8" opacity="0.35"/><circle cx="205.3" cy="391.2" r="0.6" fill="#e6d2a8" opacity="0.45"/><circle cx="302.4" cy="448.5" r="1.2" fill="#e6d2a8" opacity="0.55"/><circle cx="399.5" cy="505.9" r="1.8" fill="#e6d2a8" opacity="0.15"/><circle cx="496.7" cy="563.2" r="0.6" fill="#e6d2a8" opacity="0.25"/><circle cx="593.8" cy="620.5" r="1.2" fill="#e6d2a8" opacity="0.35"/><circle cx="690.9" cy="677.8" r="1.8" fill="#e6d2a8" opacity="0.45"/><circle cx="788.1" cy="735.1" r="0.6" fill="#e6d2a8" opacity="0.55"/><circle cx="885.2" cy="42.4" r="1.2" fill="#e6d2a8" opacity="0.15"/><circle cx="982.3" cy="99.7" r="1.8" fill="#e6d2a8" opacity="0.25"/><circle cx="79.5" cy="157.0" r="0.6" fill="#e6d2a8" opacity="0.35"/><circle cx="176.6" cy="214.3" r="1.2" fill="#e6d2a8" opacity="0.45"/><circle cx="273.7" cy="271.6" r="1.8" fill="#e6d2a8" opacity="0.55"/><circle cx="370.8" cy="329.0" r="0.6" fill="#e6d2a8" opacity="0.15"/><circle cx="468.0" cy="386.3" r="1.2" fill="#e6d2a8" opacity="0.25"/><circle cx="565.1" cy="443.6" r="1.8" fill="#e6d2a8" opacity="0.35"/><circle cx="662.2" cy="500.9" r="0.6" fill="#e6d2a8" opacity="0.45"/><circle cx="759.4" cy="558.2" r="1.2" fill="#e6d2a8" opacity="0.55"/><circle cx="856.5" cy="615.5" r="1.8" fill="#e6d2a8" opacity="0.15"/><circle cx="953.6" cy="672.8" r="0.6" fill="#e6d2a8" opacity="0.25"/><circle cx="50.8" cy="730.1" r="1.2" fill="#e6d2a8" opacity="0.35"/><circle cx="147.9" cy="37.4" r="1.8" fill="#e6d2a8" opacity="0.45"/><circle cx="245.0" cy="94.7" r="0.6" fill="#e6d2a8" opacity="0.55"/><circle cx="342.1" cy="152.1" r="1.2" fill="#e6d2a8" opacity="0.15"/><circle cx="439.3" cy="209.4" r="1.8" fill="#e6d2a8" opacity="0.25"/><circle cx="536.4" cy="266.7" r="0.6" fill="#e6d2a8" opacity="0.35"/><circle cx="633.5" cy="324.0" r="1.2" fill="#e6d2a8" opacity="0.45"/><circle cx="730.7" cy="381.3" r="1.8" fill="#e6d2a8" opacity="0.55"/>
  <g fill="none" stroke="#e6d2a8" stroke-opacity="0.35" stroke-width="1">
    <circle cx="500" cy="375" r="120"/>
  </g>
  <text x="50%" y="50%" dy="0.35em" text-anchor="middle"
    font-family="'Space Grotesk', system-ui, sans-serif" font-size="67.5"
    letter-spacing="4" fill="#e6d2a8" fill-opacity="0.8">A &amp; K</text>
  <text x="50%" y="732" text-anchor="middle"
    font-family="system-ui, sans-serif" font-size="12" letter-spacing="3"
    fill="#e6d2a8" fill-opacity="0.45">PLACEHOLDER</text>
</svg>